<svg width="20" height="24" viewBox="0 0 20 24" fill="none" xmlns="http://www.w3.org/2000/svg">
<path d="M6.68386 24C3.11194 23.9794 0.157314 16.6879 0.157314 12.9745C0.157314 6.90873 4.70771 5.58077 6.46139 5.58077C7.25171 5.58077 8.0956 5.89112 8.83993 6.16577C9.36043 6.35734 9.89874 6.55511 10.1981 6.55511C10.3773 6.55511 10.7996 6.38687 11.1725 6.23927C11.9676 5.92272 12.9571 5.5293 14.1092 5.5293C14.1113 5.5293 14.1141 5.5293 14.1161 5.5293C14.9764 5.5293 17.585 5.71811 19.1533 8.0733L19.5207 8.62534L18.992 9.0243C18.2367 9.5942 16.8586 10.6338 16.8586 12.6931C16.8586 15.132 18.4193 16.07 19.1691 16.5211C19.5001 16.7202 19.8427 16.9255 19.8427 17.3746C19.8427 17.6678 17.5026 23.9636 14.1044 23.9636C13.2729 23.9636 12.6851 23.7137 12.1667 23.4933C11.6421 23.2701 11.1896 23.0779 10.4418 23.0779C10.0628 23.0779 9.5835 23.2571 9.07608 23.4473C8.38266 23.7061 7.59779 24 6.70721 24H6.68386Z" fill="#41414D"/>
<path d="M14.4693 0C14.5578 3.19106 12.2757 5.40487 9.99623 5.26603C9.62062 2.71945 12.2754 0 14.4693 0Z" fill="#41414D"/>
</svg>
